<?xml version="1.0" standalone="no"?>
<!DOCTYPE svg PUBLIC "-//W3C//DTD SVG 20010904//EN"
 "http://www.w3.org/TR/2001/REC-SVG-20010904/DTD/svg10.dtd">
<svg version="1.0" xmlns="http://www.w3.org/2000/svg"
 width="500.000000pt" height="500.000000pt" viewBox="0 0 500.000000 500.000000"
 preserveAspectRatio="xMidYMid meet">
<metadata>
Created by potrace 1.11, written by Peter Selinger 2001-2013
</metadata>
<g transform="translate(0.000000,500.000000) scale(0.100000,-0.100000)"
fill="#000000" stroke="none">
<path d="M711 4134 c-85 -91 -180 -215 -260 -339 -125 -195 -274 -543 -304
-715 -3 -14 -10 -43 -15 -65 -6 -22 -13 -58 -17 -80 -3 -22 -8 -53 -11 -70
-30 -166 -35 -525 -10 -665 3 -14 9 -56 15 -95 26 -168 78 -354 148 -525 41
-99 133 -283 169 -335 13 -20 24 -38 24 -40 0 -8 96 -143 156 -218 63 -79 136
-160 166 -185 14 -12 77 47 491 462 l475 476 762 0 761 0 476 -477 476 -476
56 60 c344 368 576 859 635 1345 23 184 24 487 2 604 -2 10 -7 44 -11 74 -47
357 -246 824 -474 1110 -75 95 -196 230 -206 230 -2 0 -219 -215 -481 -477
l-477 -477 -756 -1 -756 0 -478 478 c-262 262 -479 477 -481 477 -2 0 -36 -34
-75 -76z"/>
</g>
</svg>
